<svg id="图层_1" data-name="图层 1" xmlns="http://www.w3.org/2000/svg" xmlns:xlink="http://www.w3.org/1999/xlink" viewBox="0 0 16 16"><defs><style>.cls-1{fill:#003f76;}.cls-2{fill:#669744;}.cls-3{fill:url(#未命名的渐变_15);}.cls-4{fill:#61d667;}.cls-5{fill:#fff;}</style><linearGradient id="未命名的渐变_15" y1="8" x2="16" y2="8" gradientUnits="userSpaceOnUse"><stop offset="0" stop-color="#003f76"/><stop offset="0.25" stop-color="#003f76"/><stop offset="0.75" stop-color="#669744"/><stop offset="1" stop-color="#669744"/></linearGradient></defs><title>N图</title><path class="cls-1" d="M3.81,13.36h0Z"/><path class="cls-1" d="M3.74,13.36h.11l-.33,0h0A.82.82,0,0,0,3.74,13.36Z"/><path class="cls-2" d="M10.42,7.87a1.42,1.42,0,0,0-1.18-.31,3.76,3.76,0,0,1,.25.31Z"/><path class="cls-2" d="M12.12,12.45h-1a1.55,1.55,0,0,0,.3.44h1C12.3,12.75,12.21,12.6,12.12,12.45Z"/><path class="cls-2" d="M12.45,13.36h0Z"/><path class="cls-2" d="M12.52,13.16h-.83a1.41,1.41,0,0,0,.66.2l.32,0Z"/><path class="cls-2" d="M11.64,11.22,11.59,11h-.83v0l.11.41h.83A2.17,2.17,0,0,1,11.64,11.22Z"/><path class="cls-2" d="M11.27,9.85l-.06-.27h-.83l0,.1.08.34h.83Z"/><path class="cls-2" d="M11,8.86h-.9a4.7,4.7,0,0,1,.17.45h.84Z"/><path class="cls-2" d="M10.7,8.14h-1c.09.15.18.3.26.45h1A1.59,1.59,0,0,0,10.7,8.14Z"/><path class="cls-2" d="M11.8,11.73h-.86l.12.45H12A4.32,4.32,0,0,1,11.8,11.73Z"/><polygon class="cls-2" points="11.41 10.29 10.59 10.29 10.7 10.74 11.52 10.74 11.41 10.29"/><path class="cls-2" d="M8.79,13.16a1.35,1.35,0,0,0,1,.18l-.16-.18Z"/><path class="cls-2" d="M9.23,12.45h-1a1.35,1.35,0,0,0,.29.44h1A4.08,4.08,0,0,1,9.23,12.45Z"/><polygon class="cls-2" points="8.51 10.29 7.69 10.29 7.8 10.74 8.62 10.74 8.51 10.29"/><path class="cls-2" d="M8.74,11.22,8.69,11H7.87v0l.1.41h.83C8.79,11.38,8.76,11.3,8.74,11.22Z"/><path class="cls-2" d="M7.85,8.14h-1c.09.15.18.3.26.45h1A1.37,1.37,0,0,0,7.85,8.14Z"/><path class="cls-2" d="M8.4,9.85l-.07-.27H7.51l0,.1.08.34h.83Z"/><path class="cls-2" d="M8.9,11.73H8.05l.11.45h.93C9,12,9,11.88,8.9,11.73Z"/><path class="cls-2" d="M8.16,8.86H7.25a3,3,0,0,1,.18.45h.84Z"/><path class="cls-2" d="M5.85,11.73H5l.12.45H6A4.32,4.32,0,0,1,5.85,11.73Z"/><path class="cls-2" d="M5.35,9.85l-.07-.27H4.46a.36.36,0,0,1,0,.1l.09.34h.82Z"/><path class="cls-2" d="M3.42,7.56a3.88,3.88,0,0,1,.26.31H4.6A1.23,1.23,0,0,0,3.42,7.56Z"/><path class="cls-2" d="M5.1,8.86H4.2a4.69,4.69,0,0,1,.18.45h.84Z"/><path class="cls-2" d="M5.69,11.22,5.64,11H4.82v0l.11.41h.83A2.17,2.17,0,0,1,5.69,11.22Z"/><polygon class="cls-2" points="5.46 10.29 4.64 10.29 4.75 10.74 5.57 10.74 5.46 10.29"/><path class="cls-2" d="M6.18,12.45h-1a1.35,1.35,0,0,0,.29.44h1A3,3,0,0,1,6.18,12.45Z"/><path class="cls-2" d="M5,8.59a1.37,1.37,0,0,0-.23-.45h-1a3.47,3.47,0,0,1,.26.45Z"/><path class="cls-2" d="M5.82,13.16a1.36,1.36,0,0,0,1,.18l-.15-.18Z"/><path class="cls-2" d="M12.67,13.34l-.32,0h.1a.78.78,0,0,0,.22,0Z"/><path class="cls-2" d="M7.6,7.87A1.59,1.59,0,0,0,7,7.56l-.26.31Z"/><path class="cls-1" d="M6.67,7.53a2.13,2.13,0,0,0-.25,0A1.52,1.52,0,0,0,5.26,8.7L5,9.85l-.25,1-.09.39a4.9,4.9,0,0,1-1.12,2.11l.33,0A1.5,1.5,0,0,0,5.22,12.2l.28-1.15.25-1,.09-.38A5.21,5.21,0,0,1,6.7,7.87L7,7.56A1.36,1.36,0,0,0,6.67,7.53Z"/><path class="cls-1" d="M8.05,8.7,7.77,9.85l-.25,1-.09.39a5,5,0,0,1-1.12,2.12A1.5,1.5,0,0,0,8,12.2l.28-1.15.25-1,.09-.38A5.11,5.11,0,0,1,9.75,7.56,1.49,1.49,0,0,0,8.05,8.7Z"/><path class="cls-1" d="M11.06,8.7l-.29,1.15-.24,1-.1.39a5,5,0,0,1-1.12,2.12A1.49,1.49,0,0,0,11,12.2l.29-1.15.24-1,.1-.38a5,5,0,0,1,1.12-2.12A1.48,1.48,0,0,0,11.06,8.7Z"/><path class="cls-3" d="M12.67,6.47h-.05A4.73,4.73,0,0,0,8,2.63,4.75,4.75,0,0,0,3.45,6.47H3.33A3.39,3.39,0,0,0,0,9.92a3.39,3.39,0,0,0,3.33,3.45h.52l-.33,0a3.08,3.08,0,0,1,.42-6.12h.11a4.23,4.23,0,0,1,4.1-3.42,4.23,4.23,0,0,1,4.09,3.42h0a3.09,3.09,0,0,1,.39,6.13l-.32,0h.34A3.39,3.39,0,0,0,16,9.92,3.39,3.39,0,0,0,12.67,6.47Z"/><rect class="cls-4" width="16" height="16" rx="1.69"/><path class="cls-5" d="M4.52,4.74c-.22,1-.42,2.09-.6,3.14A19.33,19.33,0,0,0,3.5,11a.52.52,0,0,0,.64.49c1.24-.43,1.91-1.73,2.52-2.81.32-.56.63-1.13,1-1.68.15-.25.8-1.47,1.23-1.24.19.1.28.61.34.8.11.37.2.75.28,1.13.14.67.24,1.34.34,2s.06,1.51.62,1.82,1.3-.25,1.8-.54a.5.5,0,0,0-.51-.86l-.55.32-.23.14c-.13,0-.12.06,0,.12s-.16-.9-.17-1c-.11-.67-.2-1.35-.33-2a10.87,10.87,0,0,0-.57-2.08,1.22,1.22,0,0,0-1.3-.87,2.19,2.19,0,0,0-1.4,1A18.83,18.83,0,0,0,6.17,7.51c-.33.59-.65,1.18-1,1.74a2.76,2.76,0,0,1-1.28,1.27L4.5,11a19.27,19.27,0,0,1,.41-3c.18-1,.37-2,.57-3,.13-.63-.83-.9-1-.27Z"/></svg>